<svg width="318" height="254" viewBox="0 0 318 254" fill="none" xmlns="http://www.w3.org/2000/svg">
<path d="M50 115L61.2257 149.549H97.5528L68.1636 170.902L79.3893 205.451L50 184.098L20.6107 205.451L31.8364 170.902L2.44717 149.549H38.7743L50 115Z" fill="black"/>
<path d="M56 62H41.6364V15.4545H56.6364C61.1515 15.4545 65.0152 16.3864 68.2273 18.25C71.4394 20.0985 73.9015 22.7576 75.6136 26.2273C77.3258 29.6818 78.1818 33.8182 78.1818 38.6364C78.1818 43.4848 77.3182 47.6591 75.5909 51.1591C73.8636 54.6439 71.3485 57.3258 68.0455 59.2045C64.7424 61.0682 60.7273 62 56 62ZM47.2727 57H55.6364C59.4848 57 62.6742 56.2576 65.2045 54.7727C67.7348 53.2879 69.6212 51.1742 70.8636 48.4318C72.1061 45.6894 72.7273 42.4242 72.7273 38.6364C72.7273 34.8788 72.1136 31.6439 70.8864 28.9318C69.6591 26.2045 67.8258 24.1136 65.3864 22.6591C62.947 21.1894 59.9091 20.4545 56.2727 20.4545H47.2727V57ZM101.545 62.7273C98.1818 62.7273 95.2803 61.9848 92.8409 60.5C90.4167 59 88.5455 56.9091 87.2273 54.2273C85.9242 51.5303 85.2727 48.3939 85.2727 44.8182C85.2727 41.2424 85.9242 38.0909 87.2273 35.3636C88.5455 32.6212 90.3788 30.4848 92.7273 28.9545C95.0909 27.4091 97.8485 26.6364 101 26.6364C102.818 26.6364 104.614 26.9394 106.386 27.5455C108.159 28.1515 109.773 29.1364 111.227 30.5C112.682 31.8485 113.841 33.6364 114.705 35.8636C115.568 38.0909 116 40.8333 116 44.0909V46.3636H89.0909V41.7273H110.545C110.545 39.7576 110.152 38 109.364 36.4545C108.591 34.9091 107.485 33.6894 106.045 32.7955C104.621 31.9015 102.939 31.4545 101 31.4545C98.8636 31.4545 97.0152 31.9848 95.4545 33.0455C93.9091 34.0909 92.7197 35.4545 91.8864 37.1364C91.053 38.8182 90.6364 40.6212 90.6364 42.5455V45.6364C90.6364 48.2727 91.0909 50.5076 92 52.3409C92.9242 54.1591 94.2045 55.5455 95.8409 56.5C97.4773 57.4394 99.3788 57.9091 101.545 57.9091C102.955 57.9091 104.227 57.7121 105.364 57.3182C106.515 56.9091 107.508 56.303 108.341 55.5C109.174 54.6818 109.818 53.6667 110.273 52.4545L115.455 53.9091C114.909 55.6667 113.992 57.2121 112.705 58.5455C111.417 59.8636 109.826 60.8939 107.932 61.6364C106.038 62.3636 103.909 62.7273 101.545 62.7273ZM144.159 39.5455V44.5455H123.795V39.5455H144.159Z" fill="#FABF29"/>
<path d="M99.5455 92.4545L113.364 131.636H113.909L127.727 92.4545H133.636L116.545 139H110.727L93.6364 92.4545H99.5455ZM151.545 139.727C148.182 139.727 145.28 138.985 142.841 137.5C140.417 136 138.545 133.909 137.227 131.227C135.924 128.53 135.273 125.394 135.273 121.818C135.273 118.242 135.924 115.091 137.227 112.364C138.545 109.621 140.379 107.485 142.727 105.955C145.091 104.409 147.848 103.636 151 103.636C152.818 103.636 154.614 103.939 156.386 104.545C158.159 105.152 159.773 106.136 161.227 107.5C162.682 108.848 163.841 110.636 164.705 112.864C165.568 115.091 166 117.833 166 121.091V123.364H139.091V118.727H160.545C160.545 116.758 160.152 115 159.364 113.455C158.591 111.909 157.485 110.689 156.045 109.795C154.621 108.902 152.939 108.455 151 108.455C148.864 108.455 147.015 108.985 145.455 110.045C143.909 111.091 142.72 112.455 141.886 114.136C141.053 115.818 140.636 117.621 140.636 119.545V122.636C140.636 125.273 141.091 127.508 142 129.341C142.924 131.159 144.205 132.545 145.841 133.5C147.477 134.439 149.379 134.909 151.545 134.909C152.955 134.909 154.227 134.712 155.364 134.318C156.515 133.909 157.508 133.303 158.341 132.5C159.174 131.682 159.818 130.667 160.273 129.455L165.455 130.909C164.909 132.667 163.992 134.212 162.705 135.545C161.417 136.864 159.826 137.894 157.932 138.636C156.038 139.364 153.909 139.727 151.545 139.727Z" fill="#FABF29"/>
<path d="M138.909 190.227V195.227H118.545V190.227H138.909ZM163.438 216H149.074V169.455H164.074C168.589 169.455 172.453 170.386 175.665 172.25C178.877 174.098 181.339 176.758 183.051 180.227C184.763 183.682 185.619 187.818 185.619 192.636C185.619 197.485 184.756 201.659 183.028 205.159C181.301 208.644 178.786 211.326 175.483 213.205C172.18 215.068 168.165 216 163.438 216ZM154.71 211H163.074C166.922 211 170.112 210.258 172.642 208.773C175.172 207.288 177.059 205.174 178.301 202.432C179.544 199.689 180.165 196.424 180.165 192.636C180.165 188.879 179.551 185.644 178.324 182.932C177.097 180.205 175.263 178.114 172.824 176.659C170.384 175.189 167.347 174.455 163.71 174.455H154.71V211ZM208.983 216.727C205.619 216.727 202.718 215.985 200.278 214.5C197.854 213 195.983 210.909 194.665 208.227C193.362 205.53 192.71 202.394 192.71 198.818C192.71 195.242 193.362 192.091 194.665 189.364C195.983 186.621 197.816 184.485 200.165 182.955C202.528 181.409 205.286 180.636 208.438 180.636C210.256 180.636 212.051 180.939 213.824 181.545C215.597 182.152 217.21 183.136 218.665 184.5C220.119 185.848 221.278 187.636 222.142 189.864C223.006 192.091 223.438 194.833 223.438 198.091V200.364H196.528V195.727H217.983C217.983 193.758 217.589 192 216.801 190.455C216.028 188.909 214.922 187.689 213.483 186.795C212.059 185.902 210.377 185.455 208.438 185.455C206.301 185.455 204.453 185.985 202.892 187.045C201.347 188.091 200.157 189.455 199.324 191.136C198.491 192.818 198.074 194.621 198.074 196.545V199.636C198.074 202.273 198.528 204.508 199.438 206.341C200.362 208.159 201.642 209.545 203.278 210.5C204.915 211.439 206.816 211.909 208.983 211.909C210.392 211.909 211.665 211.712 212.801 211.318C213.953 210.909 214.945 210.303 215.778 209.5C216.612 208.682 217.256 207.667 217.71 206.455L222.892 207.909C222.347 209.667 221.43 211.212 220.142 212.545C218.854 213.864 217.263 214.894 215.369 215.636C213.475 216.364 211.347 216.727 208.983 216.727Z" fill="#FABF29"/>
<path d="M249.856 40.7869L229.163 70.644L251.164 99.5508L216.374 89.0967L195.681 118.954L194.872 82.6357L160.082 72.1816L194.373 60.1899L193.564 23.8717L215.566 52.7786L249.856 40.7869Z" fill="#D9D9D9"/>
<path d="M70 142L81.2257 176.549H117.553L88.1636 197.902L99.3893 232.451L70 211.098L40.6107 232.451L51.8364 197.902L22.4472 176.549H58.7743L70 142Z" fill="black"/>
<path d="M235.938 182.818L233.159 176.545H234.284L236.227 181.148L238.17 176.545H239.295L236.517 182.818H235.938ZM232.955 182.818V176.545H234.045V182.818H232.955ZM238.409 182.818V176.545H239.5V182.818H238.409ZM228.864 182.818V177.091H229.955V182.818H228.864ZM226.955 177.5V176.545H231.864V177.5H226.955Z" fill="black"/>
</svg>
